<?xml version="1.0" encoding="utf-8"?>
<!-- Generator: Adobe Illustrator 20.1.0, SVG Export Plug-In . SVG Version: 6.00 Build 0)  -->
<svg version="1.1" id="Layer_1" xmlns="http://www.w3.org/2000/svg" xmlns:xlink="http://www.w3.org/1999/xlink" x="0px" y="0px"
	 viewBox="0 0 1239.333 310.125" style="enable-background:new 0 0 1239.333 310.125;" xml:space="preserve">
<style type="text/css">
	.st0{fill:#FFFFFF;}
</style>
<g>
	<g>
		<path class="st0" d="M311.127,229.961l1.746-6.041c2.081-7.188,1.307-13.833-2.186-18.715c-3.213-4.498-8.567-7.145-15.069-7.452
			l-123.166-1.571c-0.829-0.044-1.516-0.417-1.938-1.032c-0.428-0.631-0.527-1.444-0.264-2.224c0.406-1.214,1.609-2.131,2.861-2.186
			l124.309-1.576c14.745-0.675,30.709-12.642,36.3-27.233l7.09-18.523c0.195-0.504,0.283-1.039,0.28-1.575
			c-0.002-0.293-0.023-0.586-0.087-0.875c-8.056-36.206-40.364-63.28-78.997-63.28c-35.597,0-65.823,22.977-76.663,54.911
			c-6.996-5.25-15.948-8.04-25.569-7.079c-17.079,1.697-30.803,15.448-32.499,32.527c-0.445,4.432-0.082,8.71,0.939,12.73
			c-27.898,0.813-50.27,23.669-50.27,51.764c0,2.543,0.192,5.041,0.549,7.485c0.176,1.186,1.175,2.076,2.372,2.076l227.387,0.027
			c0.022,0,0.042-0.01,0.065-0.011C309.615,232.08,310.76,231.219,311.127,229.961z"/>
		<path class="st0" d="M352.158,144.764c-1.142,0-2.279,0.033-3.41,0.088c-0.187,0.01-0.364,0.055-0.534,0.115
			c-0.591,0.207-1.061,0.685-1.24,1.308l-4.844,16.728c-2.081,7.188-1.307,13.828,2.186,18.71c3.213,4.503,8.567,7.145,15.069,7.452
			l26.256,1.576c0.774,0.038,1.455,0.412,1.873,1.016c0.439,0.637,0.538,1.455,0.275,2.235c-0.412,1.214-1.609,2.131-2.856,2.186
			l-27.282,1.576c-14.811,0.681-30.775,12.642-36.366,27.233l-1.972,5.151c-0.359,0.932,0.309,1.925,1.295,1.973
			c0.025,0.001,0.047,0.009,0.073,0.009h93.874c1.12,0,2.12-0.73,2.422-1.807c1.631-5.799,2.499-11.911,2.499-18.232
			C419.475,174.902,389.337,144.764,352.158,144.764z"/>
	</g>
	<g>
		<path class="st0" d="M1158.495,187.676c-3.355,0-6.074-2.713-6.074-6.068c0-3.339,2.718-6.052,6.074-6.052
			c3.35,0,6.068,2.713,6.068,6.052C1164.563,184.963,1161.845,187.676,1158.495,187.676 M1158.495,176.676
			c-2.685,0-4.865,2.213-4.865,4.931c0,2.735,2.18,4.948,4.865,4.948c2.68,0,4.86-2.213,4.86-4.948
			C1163.355,178.889,1161.175,176.676,1158.495,176.676 M1161.559,184.809h-1.439l-1.208-2.328h-1.626v2.312h-1.258v-6.672h3.202
			c1.406,0,2.295,0.857,2.295,2.18c0,0.956-0.555,1.724-1.389,2.026L1161.559,184.809z M1159.248,181.322
			c0.521,0,1.038-0.269,1.038-1.021c0-0.758-0.401-1.021-1.038-1.021h-1.961v2.043H1159.248z"/>
		<polygon class="st0" points="523.013,174.934 538.56,174.934 538.56,217.406 565.727,217.406 565.727,231.025 523.013,231.025 		
			"/>
		<path class="st0" d="M581.828,203.141v-0.159c0-16.107,12.982-29.172,30.292-29.172s30.127,12.905,30.127,29.012v0.159
			c0,16.107-12.982,29.166-30.286,29.166C594.651,232.148,581.828,219.248,581.828,203.141 M626.382,203.141v-0.159
			c0-8.095-5.849-15.146-14.421-15.146c-8.496,0-14.185,6.892-14.185,14.987v0.159c0,8.095,5.849,15.146,14.344,15.146
			C620.692,218.128,626.382,211.236,626.382,203.141"/>
		<path class="st0" d="M661.275,206.426v-31.494h15.788v31.176c0,8.095,4.086,11.939,10.335,11.939
			c6.249,0,10.335-3.685,10.335-11.538v-31.577h15.788v31.094c0,18.111-10.335,26.041-26.283,26.041
			C671.292,232.067,661.275,223.977,661.275,206.426"/>
		<path class="st0" d="M737.314,174.937h21.637c20.033,0,31.654,11.538,31.654,27.722v0.165c0,16.184-11.78,28.205-31.972,28.205
			h-21.318V174.937z M759.192,217.244c9.297,0,15.464-5.129,15.464-14.185V202.9c0-8.973-6.167-14.185-15.464-14.185h-6.332v28.529
			H759.192z"/>
		<polygon class="st0" points="813.198,174.934 858.07,174.934 858.07,188.559 828.745,188.559 828.745,198.092 855.27,198.092 
			855.27,210.992 828.745,210.992 828.745,231.025 813.198,231.025 		"/>
		<polygon class="st0" points="879.703,174.934 895.25,174.934 895.25,217.406 922.417,217.406 922.417,231.025 879.703,231.025 		
			"/>
		<path class="st0" d="M963.041,174.533h14.981l23.883,56.492h-16.667l-4.091-10.017H959.51l-4.003,10.017h-16.349L963.041,174.533z
			 M976.661,208.911l-6.25-15.948l-6.332,15.948H976.661z"/>
		<path class="st0" d="M1021.929,174.933h26.525c8.578,0,14.503,2.246,18.271,6.09c3.289,3.207,4.97,7.535,4.97,13.065v0.159
			c0,8.572-4.569,14.262-11.538,17.227l13.383,19.556h-17.952l-11.296-16.991h-6.815v16.991h-15.547V174.933z M1047.734,201.858
			c5.288,0,8.336-2.565,8.336-6.65v-0.159c0-4.41-3.207-6.65-8.419-6.65h-10.176v13.46H1047.734z"/>
		<polygon class="st0" points="1094.125,174.934 1139.239,174.934 1139.239,188.158 1109.513,188.158 1109.513,196.648 
			1136.438,196.648 1136.438,208.911 1109.513,208.911 1109.513,217.807 1139.64,217.807 1139.64,231.025 1094.125,231.025 		"/>
		<path class="st0" d="M488.975,209.717c-2.175,4.91-6.76,8.408-12.845,8.408c-8.496,0-14.344-7.051-14.344-15.146v-0.159
			c0-8.095,5.689-14.987,14.185-14.987c6.403,0,11.28,3.937,13.339,9.297h16.387c-2.625-13.35-14.355-23.318-29.567-23.318
			c-17.31,0-30.286,13.059-30.286,29.166v0.159c0,16.107,12.817,29.012,30.127,29.012c14.805,0,26.376-9.588,29.43-22.433H488.975z"
			/>
	</g>
</g>
<g>
</g>
<g>
</g>
<g>
</g>
<g>
</g>
<g>
</g>
<g>
</g>
</svg>
