<?xml version="1.0" encoding="utf-8"?>
<!-- Generator: Adobe Illustrator 23.0.2, SVG Export Plug-In . SVG Version: 6.00 Build 0)  -->
<svg version="1.1" id="Layer_3" xmlns="http://www.w3.org/2000/svg" xmlns:xlink="http://www.w3.org/1999/xlink" x="0px" y="0px"
	 viewBox="0 0 1437.7 808.7" style="enable-background:new 0 0 1437.7 808.7;" xml:space="preserve">
<style type="text/css">
	.st0{fill:#FF282D;}
</style>
<g>
	<polygon class="st0" points="934.8,220.6 934.8,532.3 1028.5,532.3 1028.5,484.7 997.5,484.7 997.5,173.1 934.8,173.2 	"/>
	<path class="st0" d="M121.9,484.7h31.8V334.3h-31.8v-41.4l31.8-5.2v-41.9c0-50.7,11-72.7,75.7-72.7c14,0,30.5,2.1,45,4.7l-8.6,51
		c-9.8-1.6-14.7-1.8-20.9-1.8c-22.8,0-28.5,2.3-28.5,24.5v36.2h47.3v46.6h-47.3v150.4h31.5v47.6l-126,0V484.7z"/>
	<path class="st0" d="M903,469.6c-9.8,2.1-18.4,1.8-24.6,2c-25.8,0.6-23.6-7.8-23.6-32.2V334.3h49.1v-46.6h-49.1V173.1h-62.7v279.3
		c0,54.8,13.5,79.9,72.5,79.9c14,0,33.2-3.6,47.7-6.7L903,469.6z"/>
	<path class="st0" d="M1292.4,484.9c13.2,0,23.8,10.5,23.8,23.6c0,13.2-10.7,23.6-23.8,23.6c-13.2,0-23.8-10.5-23.8-23.6
		C1268.6,495.4,1279.2,484.9,1292.4,484.9 M1292.4,528.5c10.9,0,19.9-9,19.9-19.9c0-10.9-8.9-19.7-19.9-19.7
		c-10.9,0-19.8,8.7-19.8,19.7C1272.6,519.5,1281.4,528.5,1292.4,528.5 M1296.8,520.2l-4.8-7h-3.3v7h-5.3v-23.2h9.7
		c5.7,0,9.3,2.9,9.3,8c0,3.8-1.9,6.3-4.9,7.2l5.8,8H1296.8z M1288.7,508.5h4.3c2.4,0,4.1-0.9,4.1-3.5c0-2.4-1.6-3.4-3.9-3.4h-4.4
		V508.5z"/>
	<path class="st0" d="M713.9,334.2v-8.3c-19-3.5-37.8-3.5-48-3.5c-29.2,0-32.7,15.5-32.7,23.9c0,11.9,4,18.3,35.7,25.2
		c46.2,10.4,92.6,21.2,92.6,78.5c0,54.3-28,82.4-86.8,82.4c-39.4,0-77.6-8.5-106.7-15.9v-46.8h47.5l0,8.3c20.4,3.9,41.8,3.6,53,3.6
		c31.1,0,36.2-16.7,36.2-25.6c0-12.3-8.9-18.3-38.1-24.2c-55-9.4-98.6-28.2-98.6-84c0-52.8,35.3-73.6,94.2-73.6
		c39.9,0,70.2,6.2,99.4,13.6v46.5H713.9z"/>
	<path class="st0" d="M425.4,375.4l-4.8-4.8l-24.2,21.1c-1.2-0.4-2.5-0.7-3.9-0.7c-6.5,0-11.8,5.4-11.8,12.2
		c0,6.7,5.3,12.2,11.8,12.2c6.5,0,11.8-5.4,11.8-12.2c0-1.3-0.2-2.5-0.5-3.7L425.4,375.4z"/>
	<path class="st0" d="M521.5,469.6l0-195.1h-62.7v18.3c-12.9-7.7-27.3-13.3-42.6-16.1h0.4v-21.6h7.6v-15.9H361v15.9h7.6v21.6h0.4
		c-60,11-105.4,63.5-105.4,126.7c0,71.2,57.7,128.9,128.9,128.9c24.3,0,47-6.7,66.4-18.4l11.3,18.4h66.2v-62.7H521.5z M396.3,469.5
		v-7.4h-7.5v7.3c-33.6-2-60.6-29-62.3-62.7h7.5v-7.5h-7.4c2-33.5,28.8-60.2,62.3-62.2v7.4h7.5V337c33,1.8,59.6,27.6,62.5,60.3v2.2
		h-7.5v7.5h7.5l0,2.1C455.9,441.8,429.3,467.7,396.3,469.5z"/>
	<path class="st0" d="M1187.1,287.7h129.3v46.5h-30.9l-79.3,195.1c-22.7,54.8-60.1,106.4-116.9,106.4c-14,0-32.6-1.5-45.5-4.6
		l5.7-56.9c8.3,1.5,19.1,2.6,24.8,2.6c26.4,0,56.1-16.3,65.4-44.8l-80.3-197.7h-30.9v-46.5h129.4v46.5h-30.9l45.5,112l0,0l45.5-112
		h-30.8V287.7z"/>
</g>
</svg>
